<?xml version="1.0" encoding="UTF-8" standalone="no"?> <svg width="64" height="64" viewBox="0 0 64 64" fill="none" xmlns="http://www.w3.org/2000/svg">
<path d="M5.79004 26.6401H59.46V54.1901C59.46 55.8027 58.8195 57.3491 57.6792 58.4893C56.539 59.6296 54.9926 60.2701 53.38 60.2701H11.87C10.2575 60.2701 8.71105 59.6296 7.57083 58.4893C6.43061 57.3491 5.79004 55.8027 5.79004 54.1901V26.6401V26.6401Z" fill="#78B9EB"/>
<path d="M60.0001 25.0601H19.4401L59.0701 16.0001C59.4539 15.914 59.7882 15.6796 59.9999 15.348C60.2116 15.0164 60.2835 14.6146 60.2001 14.2301L58.8301 7.70011C58.6799 6.9854 58.3887 6.30784 57.9734 5.70709C57.5581 5.10634 57.0272 4.59448 56.4116 4.20149C55.796 3.80851 55.1083 3.54228 54.3885 3.41841C53.6688 3.29454 52.9316 3.31552 52.2201 3.48011L7.50006 13.7501C6.09812 14.0798 4.88011 14.9435 4.10509 16.1574C3.33007 17.3712 3.05919 18.8396 3.35006 20.2501L4.72006 26.7101V56.0001C4.72006 57.4588 5.29953 58.8577 6.33098 59.8892C7.36243 60.9206 8.76137 61.5001 10.2201 61.5001H56.0001C57.4579 61.4975 58.8554 60.9172 59.8862 59.8863C60.9171 58.8554 61.4974 57.458 61.5001 56.0001V26.5601C61.5001 26.1623 61.342 25.7808 61.0607 25.4994C60.7794 25.2181 60.3979 25.0601 60.0001 25.0601V25.0601ZM18.6901 14.2601L13.0501 23.4501L8.19006 24.5601L13.8301 15.3701L18.6901 14.2601ZM27.6901 12.2001L22.0001 21.3901L17.1301 22.5101L22.7601 13.3201L27.6901 12.2001ZM36.6901 10.1401L31.0001 19.3301L26.1301 20.4501L31.7601 11.2601L36.6901 10.1401ZM45.6901 8.08011L40.0001 17.2701L35.1301 18.3901L40.7201 9.20011L45.6901 8.08011ZM53.0001 14.2701L56.0801 9.27011L57.0001 13.3601L53.0001 14.2701ZM52.8901 6.40011C53.3451 6.29628 53.8202 6.32403 54.2601 6.48011L48.9101 15.2101L44.0501 16.3201L49.6801 7.14011L52.8901 6.40011ZM8.17006 16.6701L9.73006 16.3201L6.65006 21.3201L6.28006 19.6001C6.15667 18.9623 6.28438 18.3014 6.63654 17.7555C6.9887 17.2095 7.53809 16.8207 8.17006 16.6701V16.6701ZM58.5001 56.0001C58.5001 56.6632 58.2367 57.299 57.7678 57.7679C57.299 58.2367 56.6631 58.5001 56.0001 58.5001H10.2201C9.55702 58.5001 8.92114 58.2367 8.4523 57.7679C7.98346 57.299 7.72006 56.6632 7.72006 56.0001V28.0601H58.5001V56.0001Z" fill="#006DF0"/>
</svg>
